<?xml version="1.0" encoding="UTF-8" standalone="no"?>
<!-- Created with Inkscape (http://www.inkscape.org/) -->

<svg
   xmlns:dc="http://purl.org/dc/elements/1.1/"
   xmlns:cc="http://creativecommons.org/ns#"
   xmlns:rdf="http://www.w3.org/1999/02/22-rdf-syntax-ns#"
   xmlns:svg="http://www.w3.org/2000/svg"
   xmlns="http://www.w3.org/2000/svg"
   xmlns:sodipodi="http://sodipodi.sourceforge.net/DTD/sodipodi-0.dtd"
   xmlns:inkscape="http://www.inkscape.org/namespaces/inkscape"
   width="150mm"
   height="150mm"
   viewBox="0 0 150 150"
   version="1.1"
   id="svg8"
   inkscape:version="0.92.3 (2405546, 2018-03-11)"
   sodipodi:docname="us.svg">
  <defs
     id="defs2" />
  <sodipodi:namedview
     id="base"
     pagecolor="#ffffff"
     bordercolor="#666666"
     borderopacity="1.0"
     inkscape:pageopacity="0.0"
     inkscape:pageshadow="2"
     inkscape:zoom="0.35"
     inkscape:cx="-62.857143"
     inkscape:cy="560"
     inkscape:document-units="mm"
     inkscape:current-layer="layer1"
     showgrid="false"
     inkscape:window-width="1853"
     inkscape:window-height="1025"
     inkscape:window-x="67"
     inkscape:window-y="27"
     inkscape:window-maximized="1"
     showguides="true"
     inkscape:guide-bbox="true" />
  <metadata
     id="metadata5">
    <rdf:RDF>
      <cc:Work
         rdf:about="">
        <dc:format>image/svg+xml</dc:format>
        <dc:type
           rdf:resource="http://purl.org/dc/dcmitype/StillImage" />
        <dc:title></dc:title>
      </cc:Work>
    </rdf:RDF>
  </metadata>
  <g
     inkscape:label="Layer 1"
     inkscape:groupmode="layer"
     id="layer1"
     transform="translate(0,-147)">
    <rect
       style="opacity:1;fill:#ff0000;fill-opacity:1;stroke-width:0.12314149"
       id="rect905"
       width="150"
       height="13.6363"
       x="0"
       y="283.36371" />
    <rect
       style="opacity:1;fill:#ffffff;fill-opacity:1;stroke-width:0.1231415"
       id="rect905-7"
       width="150"
       height="13.6363"
       x="0"
       y="269.72742" />
    <rect
       style="opacity:1;fill:#ff0000;fill-opacity:1;stroke-width:0.1231415"
       id="rect905-7-5"
       width="150"
       height="13.6363"
       x="-1.9073486e-06"
       y="256.09113" />
    <rect
       style="opacity:1;fill:#ffffff;fill-opacity:1;stroke-width:0.1231415"
       id="rect905-7-5-3"
       width="150"
       height="13.6363"
       x="-1.9073486e-06"
       y="242.45483" />
    <rect
       style="opacity:1;fill:#ff0000;fill-opacity:1;stroke-width:0.1231415"
       id="rect905-7-5-3-5"
       width="150"
       height="13.6363"
       x="0"
       y="228.81853" />
    <rect
       style="opacity:1;fill:#ffffff;fill-opacity:1;stroke-width:0.1231415"
       id="rect905-7-5-3-5-6"
       width="150"
       height="13.6363"
       x="0"
       y="215.18222" />
    <rect
       style="opacity:1;fill:#ff0000;fill-opacity:1;stroke-width:0.1231415"
       id="rect905-7-5-3-5-6-2"
       width="150"
       height="13.6363"
       x="0"
       y="201.54591" />
    <rect
       style="opacity:1;fill:#ffffff;fill-opacity:1;stroke-width:0.1231415"
       id="rect905-7-5-3-5-6-2-9"
       width="150"
       height="13.6363"
       x="7.1054274e-15"
       y="187.90961" />
    <rect
       style="opacity:1;fill:#ff0000;fill-opacity:1;stroke-width:0.1231415"
       id="rect905-7-5-3-5-6-2-9-1"
       width="150"
       height="13.6363"
       x="2.8421709e-14"
       y="174.27332" />
    <rect
       style="opacity:1;fill:#ffffff;fill-opacity:1;stroke-width:0.1231415"
       id="rect905-7-5-3-5-6-2-9-1-2"
       width="150"
       height="13.6363"
       x="2.8421709e-14"
       y="160.63702" />
    <rect
       style="opacity:1;fill:#ff0000;fill-opacity:1;stroke-width:0.1231415"
       id="rect905-7-5-3-5-6-2-9-1-2-7"
       width="150"
       height="13.6363"
       x="2.8421709e-14"
       y="147.00072" />
    <rect
       style="opacity:1;fill:#000080;fill-opacity:1;stroke-width:0.16303"
       id="rect1057"
       width="95.455002"
       height="95.454834"
       x="1.4210855e-14"
       y="147" />
    <path
       sodipodi:type="star"
       style="opacity:1;fill:#ffffff;fill-opacity:1;stroke-width:0.26458332"
       id="path1061"
       sodipodi:sides="5"
       sodipodi:cx="9.7963877"
       sodipodi:cy="146.06931"
       sodipodi:r1="6.0946832"
       sodipodi:r2="3.0473416"
       sodipodi:arg1="-1.5707963"
       sodipodi:arg2="-0.9424778"
       inkscape:flatsided="false"
       inkscape:rounded="0"
       inkscape:randomized="0"
       d="m 9.7963878,139.97462 1.7911822,3.62933 4.005206,0.58199 -2.898194,2.82505 0.68417,3.98902 -3.5823643,-1.88336 -3.582365,1.88336 0.6841709,-3.98902 -2.898194,-2.82505 4.0052056,-0.58199 z"
       inkscape:transform-center-y="-0.44868498"
       transform="matrix(0.73321522,0,0,0.7709481,5.5671394,47.586831)" />
    <path
       sodipodi:type="star"
       style="opacity:1;fill:#ffffff;fill-opacity:1;stroke-width:0.26458332"
       id="path1061-0"
       sodipodi:sides="5"
       sodipodi:cx="9.7963877"
       sodipodi:cy="146.06931"
       sodipodi:r1="6.0946832"
       sodipodi:r2="3.0473416"
       sodipodi:arg1="-1.5707963"
       sodipodi:arg2="-0.9424778"
       inkscape:flatsided="false"
       inkscape:rounded="0"
       inkscape:randomized="0"
       d="m 9.7963878,139.97462 1.7911822,3.62933 4.005206,0.58199 -2.898194,2.82505 0.68417,3.98902 -3.5823643,-1.88336 -3.582365,1.88336 0.6841709,-3.98902 -2.898194,-2.82505 4.0052056,-0.58199 z"
       inkscape:transform-center-y="-0.44868498"
       transform="matrix(0.73321521,0,0,0.7709481,22.567139,47.586831)" />
    <path
       sodipodi:type="star"
       style="opacity:1;fill:#ffffff;fill-opacity:1;stroke-width:0.26458332"
       id="path1061-0-9"
       sodipodi:sides="5"
       sodipodi:cx="9.7963877"
       sodipodi:cy="146.06931"
       sodipodi:r1="6.0946832"
       sodipodi:r2="3.0473416"
       sodipodi:arg1="-1.5707963"
       sodipodi:arg2="-0.9424778"
       inkscape:flatsided="false"
       inkscape:rounded="0"
       inkscape:randomized="0"
       d="m 9.7963878,139.97462 1.7911822,3.62933 4.005206,0.58199 -2.898194,2.82505 0.68417,3.98902 -3.5823643,-1.88336 -3.582365,1.88336 0.6841709,-3.98902 -2.898194,-2.82505 4.0052056,-0.58199 z"
       inkscape:transform-center-y="-0.44868498"
       transform="matrix(0.73321521,0,0,0.7709481,39.567139,47.586831)" />
    <path
       sodipodi:type="star"
       style="opacity:1;fill:#ffffff;fill-opacity:1;stroke-width:0.26458332"
       id="path1061-0-9-3"
       sodipodi:sides="5"
       sodipodi:cx="9.7963877"
       sodipodi:cy="146.06931"
       sodipodi:r1="6.0946832"
       sodipodi:r2="3.0473416"
       sodipodi:arg1="-1.5707963"
       sodipodi:arg2="-0.9424778"
       inkscape:flatsided="false"
       inkscape:rounded="0"
       inkscape:randomized="0"
       d="m 9.7963878,139.97462 1.7911822,3.62933 4.005206,0.58199 -2.898194,2.82505 0.68417,3.98902 -3.5823643,-1.88336 -3.582365,1.88336 0.6841709,-3.98902 -2.898194,-2.82505 4.0052056,-0.58199 z"
       inkscape:transform-center-y="-0.44868498"
       transform="matrix(0.73321521,0,0,0.7709481,56.567139,47.586831)" />
    <path
       sodipodi:type="star"
       style="opacity:1;fill:#ffffff;fill-opacity:1;stroke-width:0.26458332"
       id="path1061-0-9-3-6"
       sodipodi:sides="5"
       sodipodi:cx="9.7963877"
       sodipodi:cy="146.06931"
       sodipodi:r1="6.0946832"
       sodipodi:r2="3.0473416"
       sodipodi:arg1="-1.5707963"
       sodipodi:arg2="-0.9424778"
       inkscape:flatsided="false"
       inkscape:rounded="0"
       inkscape:randomized="0"
       d="m 9.7963878,139.97462 1.7911822,3.62933 4.005206,0.58199 -2.898194,2.82505 0.68417,3.98902 -3.5823643,-1.88336 -3.582365,1.88336 0.6841709,-3.98902 -2.898194,-2.82505 4.0052056,-0.58199 z"
       inkscape:transform-center-y="-0.44868498"
       transform="matrix(0.73321521,0,0,0.7709481,73.567139,47.586831)" />
    <path
       sodipodi:type="star"
       style="opacity:1;fill:#ffffff;fill-opacity:1;stroke-width:0.26458332"
       id="path1061-06"
       sodipodi:sides="5"
       sodipodi:cx="9.7963877"
       sodipodi:cy="146.06931"
       sodipodi:r1="6.0946832"
       sodipodi:r2="3.0473416"
       sodipodi:arg1="-1.5707963"
       sodipodi:arg2="-0.9424778"
       inkscape:flatsided="false"
       inkscape:rounded="0"
       inkscape:randomized="0"
       d="m 9.7963878,139.97462 1.7911822,3.62933 4.005206,0.58199 -2.898194,2.82505 0.68417,3.98902 -3.5823643,-1.88336 -3.582365,1.88336 0.6841709,-3.98902 -2.898194,-2.82505 4.0052056,-0.58199 z"
       inkscape:transform-center-y="-0.44868498"
       transform="matrix(0.73321521,0,0,0.7709481,14.067139,64.586831)" />
    <path
       sodipodi:type="star"
       style="opacity:1;fill:#ffffff;fill-opacity:1;stroke-width:0.26458332"
       id="path1061-06-2"
       sodipodi:sides="5"
       sodipodi:cx="9.7963877"
       sodipodi:cy="146.06931"
       sodipodi:r1="6.0946832"
       sodipodi:r2="3.0473416"
       sodipodi:arg1="-1.5707963"
       sodipodi:arg2="-0.9424778"
       inkscape:flatsided="false"
       inkscape:rounded="0"
       inkscape:randomized="0"
       d="m 9.7963878,139.97462 1.7911822,3.62933 4.005206,0.58199 -2.898194,2.82505 0.68417,3.98902 -3.5823643,-1.88336 -3.582365,1.88336 0.6841709,-3.98902 -2.898194,-2.82505 4.0052056,-0.58199 z"
       inkscape:transform-center-y="-0.44868498"
       transform="matrix(0.73321521,0,0,0.7709481,31.067139,64.586831)" />
    <path
       sodipodi:type="star"
       style="opacity:1;fill:#ffffff;fill-opacity:1;stroke-width:0.26458332"
       id="path1061-06-2-6"
       sodipodi:sides="5"
       sodipodi:cx="9.7963877"
       sodipodi:cy="146.06931"
       sodipodi:r1="6.0946832"
       sodipodi:r2="3.0473416"
       sodipodi:arg1="-1.5707963"
       sodipodi:arg2="-0.9424778"
       inkscape:flatsided="false"
       inkscape:rounded="0"
       inkscape:randomized="0"
       d="m 9.7963878,139.97462 1.7911822,3.62933 4.005206,0.58199 -2.898194,2.82505 0.68417,3.98902 -3.5823643,-1.88336 -3.582365,1.88336 0.6841709,-3.98902 -2.898194,-2.82505 4.0052056,-0.58199 z"
       inkscape:transform-center-y="-0.44868498"
       transform="matrix(0.73321521,0,0,0.7709481,48.067139,64.586831)" />
    <path
       sodipodi:type="star"
       style="opacity:1;fill:#ffffff;fill-opacity:1;stroke-width:0.26458332"
       id="path1061-06-2-6-1"
       sodipodi:sides="5"
       sodipodi:cx="9.7963877"
       sodipodi:cy="146.06931"
       sodipodi:r1="6.0946832"
       sodipodi:r2="3.0473416"
       sodipodi:arg1="-1.5707963"
       sodipodi:arg2="-0.9424778"
       inkscape:flatsided="false"
       inkscape:rounded="0"
       inkscape:randomized="0"
       d="m 9.7963878,139.97462 1.7911822,3.62933 4.005206,0.58199 -2.898194,2.82505 0.68417,3.98902 -3.5823643,-1.88336 -3.582365,1.88336 0.6841709,-3.98902 -2.898194,-2.82505 4.0052056,-0.58199 z"
       inkscape:transform-center-y="-0.44868498"
       transform="matrix(0.73321521,0,0,0.7709481,65.067139,64.586831)" />
    <path
       sodipodi:type="star"
       style="opacity:1;fill:#ffffff;fill-opacity:1;stroke-width:0.26458332"
       id="path1061-8"
       sodipodi:sides="5"
       sodipodi:cx="9.7963877"
       sodipodi:cy="146.06931"
       sodipodi:r1="6.0946832"
       sodipodi:r2="3.0473416"
       sodipodi:arg1="-1.5707963"
       sodipodi:arg2="-0.9424778"
       inkscape:flatsided="false"
       inkscape:rounded="0"
       inkscape:randomized="0"
       d="m 9.7963878,139.97462 1.7911822,3.62933 4.005206,0.58199 -2.898194,2.82505 0.68417,3.98902 -3.5823643,-1.88336 -3.582365,1.88336 0.6841709,-3.98902 -2.898194,-2.82505 4.0052056,-0.58199 z"
       inkscape:transform-center-y="-0.44868498"
       transform="matrix(0.73321521,0,0,0.7709481,5.5671395,81.586831)" />
    <path
       sodipodi:type="star"
       style="opacity:1;fill:#ffffff;fill-opacity:1;stroke-width:0.26458332"
       id="path1061-0-7"
       sodipodi:sides="5"
       sodipodi:cx="9.7963877"
       sodipodi:cy="146.06931"
       sodipodi:r1="6.0946832"
       sodipodi:r2="3.0473416"
       sodipodi:arg1="-1.5707963"
       sodipodi:arg2="-0.9424778"
       inkscape:flatsided="false"
       inkscape:rounded="0"
       inkscape:randomized="0"
       d="m 9.7963878,139.97462 1.7911822,3.62933 4.005206,0.58199 -2.898194,2.82505 0.68417,3.98902 -3.5823643,-1.88336 -3.582365,1.88336 0.6841709,-3.98902 -2.898194,-2.82505 4.0052056,-0.58199 z"
       inkscape:transform-center-y="-0.44868498"
       transform="matrix(0.73321521,0,0,0.7709481,22.567138,81.586831)" />
    <path
       sodipodi:type="star"
       style="opacity:1;fill:#ffffff;fill-opacity:1;stroke-width:0.26458332"
       id="path1061-0-9-9"
       sodipodi:sides="5"
       sodipodi:cx="9.7963877"
       sodipodi:cy="146.06931"
       sodipodi:r1="6.0946832"
       sodipodi:r2="3.0473416"
       sodipodi:arg1="-1.5707963"
       sodipodi:arg2="-0.9424778"
       inkscape:flatsided="false"
       inkscape:rounded="0"
       inkscape:randomized="0"
       d="m 9.7963878,139.97462 1.7911822,3.62933 4.005206,0.58199 -2.898194,2.82505 0.68417,3.98902 -3.5823643,-1.88336 -3.582365,1.88336 0.6841709,-3.98902 -2.898194,-2.82505 4.0052056,-0.58199 z"
       inkscape:transform-center-y="-0.44868498"
       transform="matrix(0.73321521,0,0,0.7709481,39.567139,81.586831)" />
    <path
       sodipodi:type="star"
       style="opacity:1;fill:#ffffff;fill-opacity:1;stroke-width:0.26458332"
       id="path1061-0-9-3-2"
       sodipodi:sides="5"
       sodipodi:cx="9.7963877"
       sodipodi:cy="146.06931"
       sodipodi:r1="6.0946832"
       sodipodi:r2="3.0473416"
       sodipodi:arg1="-1.5707963"
       sodipodi:arg2="-0.9424778"
       inkscape:flatsided="false"
       inkscape:rounded="0"
       inkscape:randomized="0"
       d="m 9.7963878,139.97462 1.7911822,3.62933 4.005206,0.58199 -2.898194,2.82505 0.68417,3.98902 -3.5823643,-1.88336 -3.582365,1.88336 0.6841709,-3.98902 -2.898194,-2.82505 4.0052056,-0.58199 z"
       inkscape:transform-center-y="-0.44868498"
       transform="matrix(0.73321521,0,0,0.7709481,56.567144,81.586831)" />
    <path
       sodipodi:type="star"
       style="opacity:1;fill:#ffffff;fill-opacity:1;stroke-width:0.26458332"
       id="path1061-0-9-3-6-0"
       sodipodi:sides="5"
       sodipodi:cx="9.7963877"
       sodipodi:cy="146.06931"
       sodipodi:r1="6.0946832"
       sodipodi:r2="3.0473416"
       sodipodi:arg1="-1.5707963"
       sodipodi:arg2="-0.9424778"
       inkscape:flatsided="false"
       inkscape:rounded="0"
       inkscape:randomized="0"
       d="m 9.7963878,139.97462 1.7911822,3.62933 4.005206,0.58199 -2.898194,2.82505 0.68417,3.98902 -3.5823643,-1.88336 -3.582365,1.88336 0.6841709,-3.98902 -2.898194,-2.82505 4.0052056,-0.58199 z"
       inkscape:transform-center-y="-0.44868498"
       transform="matrix(0.73321521,0,0,0.7709481,73.567144,81.586831)" />
    <path
       sodipodi:type="star"
       style="opacity:1;fill:#ffffff;fill-opacity:1;stroke-width:0.26458332"
       id="path1061-06-23"
       sodipodi:sides="5"
       sodipodi:cx="9.7963877"
       sodipodi:cy="146.06931"
       sodipodi:r1="6.0946832"
       sodipodi:r2="3.0473416"
       sodipodi:arg1="-1.5707963"
       sodipodi:arg2="-0.9424778"
       inkscape:flatsided="false"
       inkscape:rounded="0"
       inkscape:randomized="0"
       d="m 9.7963878,139.97462 1.7911822,3.62933 4.005206,0.58199 -2.898194,2.82505 0.68417,3.98902 -3.5823643,-1.88336 -3.582365,1.88336 0.6841709,-3.98902 -2.898194,-2.82505 4.0052056,-0.58199 z"
       inkscape:transform-center-y="-0.44868498"
       transform="matrix(0.73321521,0,0,0.7709481,14.067139,99.586831)" />
    <path
       sodipodi:type="star"
       style="opacity:1;fill:#ffffff;fill-opacity:1;stroke-width:0.26458332"
       id="path1061-06-2-7"
       sodipodi:sides="5"
       sodipodi:cx="9.7963877"
       sodipodi:cy="146.06931"
       sodipodi:r1="6.0946832"
       sodipodi:r2="3.0473416"
       sodipodi:arg1="-1.5707963"
       sodipodi:arg2="-0.9424778"
       inkscape:flatsided="false"
       inkscape:rounded="0"
       inkscape:randomized="0"
       d="m 9.7963878,139.97462 1.7911822,3.62933 4.005206,0.58199 -2.898194,2.82505 0.68417,3.98902 -3.5823643,-1.88336 -3.582365,1.88336 0.6841709,-3.98902 -2.898194,-2.82505 4.0052056,-0.58199 z"
       inkscape:transform-center-y="-0.44868498"
       transform="matrix(0.73321521,0,0,0.7709481,31.067139,99.586831)" />
    <path
       sodipodi:type="star"
       style="opacity:1;fill:#ffffff;fill-opacity:1;stroke-width:0.26458332"
       id="path1061-06-2-6-5"
       sodipodi:sides="5"
       sodipodi:cx="9.7963877"
       sodipodi:cy="146.06931"
       sodipodi:r1="6.0946832"
       sodipodi:r2="3.0473416"
       sodipodi:arg1="-1.5707963"
       sodipodi:arg2="-0.9424778"
       inkscape:flatsided="false"
       inkscape:rounded="0"
       inkscape:randomized="0"
       d="m 9.7963878,139.97462 1.7911822,3.62933 4.005206,0.58199 -2.898194,2.82505 0.68417,3.98902 -3.5823643,-1.88336 -3.582365,1.88336 0.6841709,-3.98902 -2.898194,-2.82505 4.0052056,-0.58199 z"
       inkscape:transform-center-y="-0.44868498"
       transform="matrix(0.73321521,0,0,0.7709481,48.06714,99.586831)" />
    <path
       sodipodi:type="star"
       style="opacity:1;fill:#ffffff;fill-opacity:1;stroke-width:0.26458332"
       id="path1061-06-2-6-1-9"
       sodipodi:sides="5"
       sodipodi:cx="9.7963877"
       sodipodi:cy="146.06931"
       sodipodi:r1="6.0946832"
       sodipodi:r2="3.0473416"
       sodipodi:arg1="-1.5707963"
       sodipodi:arg2="-0.9424778"
       inkscape:flatsided="false"
       inkscape:rounded="0"
       inkscape:randomized="0"
       d="m 9.7963878,139.97462 1.7911822,3.62933 4.005206,0.58199 -2.898194,2.82505 0.68417,3.98902 -3.5823643,-1.88336 -3.582365,1.88336 0.6841709,-3.98902 -2.898194,-2.82505 4.0052056,-0.58199 z"
       inkscape:transform-center-y="-0.44868498"
       transform="matrix(0.73321521,0,0,0.7709481,65.067144,99.586831)" />
    <path
       sodipodi:type="star"
       style="opacity:1;fill:#ffffff;fill-opacity:1;stroke-width:0.26458332"
       id="path1061-8-2"
       sodipodi:sides="5"
       sodipodi:cx="9.7963877"
       sodipodi:cy="146.06931"
       sodipodi:r1="6.0946832"
       sodipodi:r2="3.0473416"
       sodipodi:arg1="-1.5707963"
       sodipodi:arg2="-0.9424778"
       inkscape:flatsided="false"
       inkscape:rounded="0"
       inkscape:randomized="0"
       d="m 9.7963878,139.97462 1.7911822,3.62933 4.005206,0.58199 -2.898194,2.82505 0.68417,3.98902 -3.5823643,-1.88336 -3.582365,1.88336 0.6841709,-3.98902 -2.898194,-2.82505 4.0052056,-0.58199 z"
       inkscape:transform-center-y="-0.44868498"
       transform="matrix(0.73321521,0,0,0.7709481,5.5671395,116.58683)" />
    <path
       sodipodi:type="star"
       style="opacity:1;fill:#ffffff;fill-opacity:1;stroke-width:0.26458332"
       id="path1061-0-7-2"
       sodipodi:sides="5"
       sodipodi:cx="9.7963877"
       sodipodi:cy="146.06931"
       sodipodi:r1="6.0946832"
       sodipodi:r2="3.0473416"
       sodipodi:arg1="-1.5707963"
       sodipodi:arg2="-0.9424778"
       inkscape:flatsided="false"
       inkscape:rounded="0"
       inkscape:randomized="0"
       d="m 9.7963878,139.97462 1.7911822,3.62933 4.005206,0.58199 -2.898194,2.82505 0.68417,3.98902 -3.5823643,-1.88336 -3.582365,1.88336 0.6841709,-3.98902 -2.898194,-2.82505 4.0052056,-0.58199 z"
       inkscape:transform-center-y="-0.44868498"
       transform="matrix(0.73321521,0,0,0.7709481,22.567139,116.58683)" />
    <path
       sodipodi:type="star"
       style="opacity:1;fill:#ffffff;fill-opacity:1;stroke-width:0.26458332"
       id="path1061-0-9-9-8"
       sodipodi:sides="5"
       sodipodi:cx="9.7963877"
       sodipodi:cy="146.06931"
       sodipodi:r1="6.0946832"
       sodipodi:r2="3.0473416"
       sodipodi:arg1="-1.5707963"
       sodipodi:arg2="-0.9424778"
       inkscape:flatsided="false"
       inkscape:rounded="0"
       inkscape:randomized="0"
       d="m 9.7963878,139.97462 1.7911822,3.62933 4.005206,0.58199 -2.898194,2.82505 0.68417,3.98902 -3.5823643,-1.88336 -3.582365,1.88336 0.6841709,-3.98902 -2.898194,-2.82505 4.0052056,-0.58199 z"
       inkscape:transform-center-y="-0.44868498"
       transform="matrix(0.73321521,0,0,0.7709481,39.567149,116.58683)" />
    <path
       sodipodi:type="star"
       style="opacity:1;fill:#ffffff;fill-opacity:1;stroke-width:0.26458332"
       id="path1061-0-9-3-2-9"
       sodipodi:sides="5"
       sodipodi:cx="9.7963877"
       sodipodi:cy="146.06931"
       sodipodi:r1="6.0946832"
       sodipodi:r2="3.0473416"
       sodipodi:arg1="-1.5707963"
       sodipodi:arg2="-0.9424778"
       inkscape:flatsided="false"
       inkscape:rounded="0"
       inkscape:randomized="0"
       d="m 9.7963878,139.97462 1.7911822,3.62933 4.005206,0.58199 -2.898194,2.82505 0.68417,3.98902 -3.5823643,-1.88336 -3.582365,1.88336 0.6841709,-3.98902 -2.898194,-2.82505 4.0052056,-0.58199 z"
       inkscape:transform-center-y="-0.44868498"
       transform="matrix(0.73321521,0,0,0.7709481,56.567149,116.58683)" />
    <path
       sodipodi:type="star"
       style="opacity:1;fill:#ffffff;fill-opacity:1;stroke-width:0.26458332"
       id="path1061-0-9-3-6-0-7"
       sodipodi:sides="5"
       sodipodi:cx="9.7963877"
       sodipodi:cy="146.06931"
       sodipodi:r1="6.0946832"
       sodipodi:r2="3.0473416"
       sodipodi:arg1="-1.5707963"
       sodipodi:arg2="-0.9424778"
       inkscape:flatsided="false"
       inkscape:rounded="0"
       inkscape:randomized="0"
       d="m 9.7963878,139.97462 1.7911822,3.62933 4.005206,0.58199 -2.898194,2.82505 0.68417,3.98902 -3.5823643,-1.88336 -3.582365,1.88336 0.6841709,-3.98902 -2.898194,-2.82505 4.0052056,-0.58199 z"
       inkscape:transform-center-y="-0.44868498"
       transform="matrix(0.73321521,0,0,0.7709481,73.567149,116.58683)" />
    <ellipse
       style="opacity:0.2;fill:#ffffff;fill-opacity:1;stroke-width:0.19133398"
       id="path1263"
       cx="47"
       cy="222"
       rx="75"
       ry="100" />
  </g>
</svg>
